<svg width="34" height="35" viewBox="0 0 34 35" fill="none" xmlns="http://www.w3.org/2000/svg">
<path d="M8.71179 24.5474L15.836 17.4231L8.71179 10.2989C7.75753 9.40161 6.49146 8.9111 5.18178 8.93126C3.8721 8.95142 2.62172 9.48065 1.69553 10.4068C0.769338 11.333 0.240104 12.5834 0.219946 13.8931C0.199789 15.2028 0.690292 16.4688 1.58754 17.4231C1.09584 17.8854 0.70201 18.4418 0.429406 19.0592C0.156803 19.6766 0.0109832 20.3425 0.000596882 21.0173C-0.00978948 21.6922 0.115469 22.3622 0.368943 22.9877C0.622416 23.6133 0.998941 24.1815 1.47618 24.6587C1.95342 25.136 2.52165 25.5125 3.14716 25.766C3.77267 26.0194 4.44272 26.1447 5.11755 26.1343C5.79239 26.1239 6.45827 25.9781 7.07568 25.7055C7.69309 25.4329 8.24946 25.0391 8.71179 24.5474Z" fill="#258439"/>
<path d="M17.0003 18.6211L9.87601 25.7453C8.97876 26.6996 8.48825 27.9657 8.50841 29.2753C8.52857 30.585 9.0578 31.8354 9.98399 32.7616C10.9102 33.6878 12.1606 34.217 13.4702 34.2372C14.7799 34.2573 16.046 33.7668 17.0003 32.8696C17.4626 33.3613 18.019 33.7551 18.6364 34.0277C19.2538 34.3003 19.9197 34.4461 20.5945 34.4565C21.2693 34.4669 21.9394 34.3417 22.5649 34.0882C23.1904 33.8347 23.7586 33.4582 24.2359 32.981C24.7131 32.5037 25.0896 31.9355 25.3431 31.31C25.5966 30.6845 25.7218 30.0144 25.7115 29.3396C25.7011 28.6647 25.5552 27.9989 25.2826 27.3815C25.01 26.764 24.6162 26.2077 24.1245 25.7453L17.0003 18.6211Z" fill="#258439"/>
<path d="M32.4126 10.2941C31.4635 9.35761 30.1838 8.83252 28.8504 8.83252C27.5171 8.83252 26.2374 9.35761 25.2883 10.2941L18.1641 17.4184L25.2883 24.5426C25.7506 25.0343 26.307 25.4282 26.9244 25.7008C27.5418 25.9734 28.2077 26.1192 28.8826 26.1296C29.5574 26.14 30.2274 26.0147 30.8529 25.7612C31.4785 25.5078 32.0467 25.1312 32.5239 24.654C33.0012 24.1768 33.3777 23.6085 33.6312 22.983C33.8846 22.3575 34.0099 21.6875 33.9995 21.0126C33.9891 20.3378 33.8433 19.6719 33.5707 19.0545C33.2981 18.4371 32.9043 17.8807 32.4126 17.4184C33.3491 16.4693 33.8742 15.1896 33.8742 13.8563C33.8742 12.5229 33.3491 11.2432 32.4126 10.2941Z" fill="#258439"/>
<path d="M24.1284 2.00507C23.1793 1.06855 21.8996 0.543457 20.5663 0.543457C19.2329 0.543457 17.9532 1.06855 17.0042 2.00507C16.0499 1.10782 14.7838 0.617315 13.4741 0.637472C12.1645 0.657629 10.9141 1.18686 9.9879 2.11305C9.06171 3.03925 8.53247 4.28963 8.51232 5.59931C8.49216 6.90898 8.98266 8.17506 9.87991 9.12932L17.0042 16.2536L24.1284 9.12932C25.0649 8.18024 25.59 6.90054 25.59 5.56719C25.59 4.23385 25.0649 2.95414 24.1284 2.00507Z" fill="#258439"/>
</svg>
