<svg id="Layer_2" data-name="Layer 2" xmlns="http://www.w3.org/2000/svg" width="30" height="30" viewBox="0 0 30 30">
  <g id="invisible_box" data-name="invisible box">
    <rect id="Rectangle_226" data-name="Rectangle 226" width="30" height="30" fill="none"/>
  </g>
  <g id="icons_Q2" data-name="icons Q2" transform="translate(2.5 2.5)">
    <path id="Path_178" data-name="Path 178" d="M24,9V5.25A1.25,1.25,0,0,0,22.75,4H5.25A1.25,1.25,0,0,0,4,5.25v17.5A1.25,1.25,0,0,0,5.25,24H9v3.75A1.25,1.25,0,0,0,10.25,29h17.5A1.25,1.25,0,0,0,29,27.75V10.25A1.25,1.25,0,0,0,27.75,9ZM6.5,21.5V6.5h15v15Zm20,5h-15V24H22.75A1.25,1.25,0,0,0,24,22.75V11.5h2.5Z" transform="translate(-4 -4)" fill="gray"/>
  </g>
</svg>
